<?xml version="1.0" encoding="UTF-8"?>
<svg id="Camada_1" data-name="Camada 1" xmlns="http://www.w3.org/2000/svg" width="500" height="500" viewBox="0 0 500 500">
  <defs>
    <style>
      .cls-1 {
        fill: #fff;
      }

      .cls-2 {
        fill: none;
      }

      .cls-3, .cls-4 {
        fill: blue;
        stroke: #000;
        stroke-miterlimit: 10;
      }

      .cls-4 {
        stroke-width: 3px;
      }
    </style>
  </defs>
  <rect class="cls-2" width="500" height="500"/>
  <g>
    <g>
      <polygon class="cls-4" points="220.2 44.2 214.2 47.5 210 49.7 210 38.7 215.6 41.7 220.2 44.2"/>
      <polygon class="cls-4" points="242.9 52 242.9 56.5 240.8 55.4 220.2 44.2 215.6 41.7 210 38.7 210 34.2 219.8 39.5 224.4 42 242.9 52"/>
      <polygon class="cls-4" points="279.8 32 275.8 34.2 266 39.5 261.5 42 242.9 52 224.4 42 219.8 39.5 210 34.2 206 32 210 29.9 242.9 12 275.8 29.9 279.8 32"/>
      <polygon class="cls-4" points="210 34.2 210 49.7 209.7 49.9 206 47.9 206 32 210 34.2"/>
    </g>
    <g>
      <polygon class="cls-4" points="174.8 68.2 168.7 71.4 164.6 73.7 164.6 62.6 170.2 65.7 174.8 68.2"/>
      <polygon class="cls-4" points="164.6 58.1 164.6 73.7 164.3 73.8 160.6 71.8 160.6 56 164.6 58.1"/>
      <polygon class="cls-4" points="236.4 57.1 236.4 61.6 208.2 76.8 203.7 79.3 203.1 79.6 199.5 81.6 199.5 77.1 203.1 75.1 208.2 72.3 236.4 57.1"/>
      <polygon class="cls-4" points="236.4 57.1 208.2 72.3 203.1 75.1 199.5 77.1 198 76.2 178.9 65.9 174.4 63.4 164.6 58.1 160.6 56 164.6 53.8 197.5 36 198 36.3 199.5 37.1 203.1 39 208.2 41.8 211.3 43.5 215.8 45.9 236.4 57.1"/>
      <polygon class="cls-4" points="199.5 77.1 199.5 81.6 198 80.7 195.3 79.3 174.8 68.2 170.2 65.7 164.6 62.6 164.6 58.1 174.4 63.4 178.9 65.9 198 76.2 199.5 77.1"/>
    </g>
    <g>
      <polygon class="cls-4" points="129.9 92.9 123.9 96.1 119.7 98.4 119.7 87.3 125.4 90.4 129.9 92.9"/>
      <polygon class="cls-4" points="119.7 82.8 119.7 98.4 119.4 98.6 115.7 96.5 115.7 80.7 119.7 82.8"/>
      <polygon class="cls-4" points="191.6 81.8 191.6 86.3 163.4 101.5 158.8 104 158.3 104.3 154.7 106.3 154.7 101.8 158.3 99.8 163.4 97 191.6 81.8"/>
      <polygon class="cls-4" points="191.6 81.8 163.4 97 158.3 99.8 154.7 101.8 153.1 100.9 134.1 90.6 129.5 88.2 119.7 82.8 115.7 80.7 119.7 78.5 152.6 60.7 153.1 61 154.7 61.8 158.3 63.7 163.4 66.5 166.4 68.2 171 70.6 191.6 81.8"/>
      <polygon class="cls-4" points="154.7 101.8 154.7 106.3 153.1 105.5 150.5 104 129.9 92.9 125.4 90.4 119.7 87.3 119.7 82.8 129.5 88.2 134.1 90.6 153.1 100.9 154.7 101.8"/>
    </g>
    <g>
      <polygon class="cls-4" points="234.3 154.6 234.3 160 201.3 177.9 196.2 180.7 191.2 177.9 191.2 177.9 196.2 175.2 201.3 172.4 229.9 156.9 234.3 154.5 234.3 154.6"/>
      <polygon class="cls-4" points="191.2 177.9 191.2 196.8 183.8 192.8 182.5 192.1 178.8 190.1 173.7 187.4 154.5 177 154.5 158.1 182.5 173.2 191.2 177.9"/>
      <polygon class="cls-4" points="196.2 180.7 196.2 194.1 191.2 196.8 191.2 177.9 196.2 180.7"/>
      <polygon class="cls-4" points="234.3 154.5 229.9 156.9 201.3 172.4 196.2 175.2 191.2 177.9 182.5 173.2 154.5 158.1 154.5 158 182.5 142.8 191.2 138.2 193.2 137.1 196.2 135.4 197.6 134.7 201.3 136.7 234.3 154.5"/>
    </g>
    <g>
      <polygon class="cls-4" points="189.4 130.1 189.4 135.5 156.4 153.4 151.3 156.2 146.3 153.4 146.3 153.4 151.3 150.7 156.4 147.9 185 132.5 189.4 130.1 189.4 130.1"/>
      <polygon class="cls-4" points="146.3 153.4 146.3 172.3 138.9 168.4 137.6 167.7 133.9 165.6 128.8 162.9 109.6 152.5 109.6 133.6 137.6 148.8 146.3 153.4"/>
      <polygon class="cls-4" points="151.3 156.2 151.3 169.6 146.3 172.3 146.3 153.4 151.3 156.2"/>
      <polygon class="cls-4" points="189.4 130.1 185 132.5 156.4 147.9 151.3 150.7 146.3 153.4 137.6 148.8 109.6 133.6 109.6 133.5 137.6 118.4 146.3 113.7 148.3 112.6 151.3 110.9 152.7 110.2 156.4 112.2 189.4 130.1"/>
    </g>
    <g>
      <polygon class="cls-4" points="144.9 105.5 144.9 110.9 111.8 128.8 106.8 131.6 101.7 128.8 101.7 128.8 106.8 126.1 111.8 123.3 140.4 107.9 144.8 105.5 144.9 105.5"/>
      <polygon class="cls-4" points="101.7 128.8 101.7 147.7 94.3 143.8 93.1 143.1 89.3 141 84.2 138.3 65 127.9 65 109 93.1 124.2 101.7 128.8"/>
      <polygon class="cls-4" points="106.8 131.6 106.8 145 101.7 147.7 101.7 128.8 106.8 131.6"/>
      <polygon class="cls-4" points="144.8 105.5 140.4 107.9 111.8 123.3 106.8 126.1 101.7 128.8 93.1 124.2 65 109 65 108.9 93.1 93.8 101.7 89.1 103.7 88 106.8 86.4 108.1 85.6 111.8 87.6 144.8 105.5"/>
    </g>
    <g>
      <polygon class="cls-4" points="287 182.5 287 182.5 279.5 186.6 253.2 200.8 242.9 206.4 232.6 200.8 206.3 186.6 198.9 182.5 198.9 182.5 232.6 164.2 238.4 161.1 242.9 158.6 247.4 161.1 253.2 164.2 287 182.5"/>
      <polygon class="cls-4" points="242.9 206.4 242.9 225.7 232.6 220.1 198.9 201.8 198.9 182.5 206.3 186.6 232.6 200.8 242.9 206.4"/>
      <polygon class="cls-4" points="287 182.5 287 201.8 253.2 220.1 242.9 225.7 242.9 206.4 253.2 200.8 279.5 186.6 287 182.5"/>
    </g>
    <g>
      <polygon class="cls-4" points="265.6 44.2 271.6 47.5 275.8 49.7 275.8 38.7 270.2 41.7 265.6 44.2"/>
      <polygon class="cls-4" points="275.8 34.2 275.8 38.7 270.2 41.7 265.6 44.2 245 55.4 242.9 56.5 242.9 52 261.5 42 266 39.5 275.8 34.2"/>
      <polygon class="cls-4" points="279.8 32 279.8 47.9 276.1 49.9 275.8 49.7 275.8 34.2 279.8 32"/>
    </g>
    <g>
      <polygon class="cls-4" points="311 68.2 317.1 71.4 321.3 73.7 321.3 62.6 315.6 65.7 311 68.2"/>
      <polygon class="cls-4" points="321.3 58.1 321.3 73.7 321.5 73.8 325.3 71.8 325.3 56 321.3 58.1"/>
      <polygon class="cls-4" points="249.4 57.1 249.4 61.6 277.6 76.8 282.2 79.3 282.7 79.6 286.3 81.6 286.3 77.1 282.7 75.1 277.6 72.3 249.4 57.1"/>
      <polygon class="cls-4" points="249.4 57.1 277.6 72.3 282.7 75.1 286.3 77.1 287.8 76.2 306.9 65.9 311.4 63.4 321.3 58.1 325.3 56 321.3 53.8 288.3 36 287.8 36.3 286.3 37.1 282.7 39 277.6 41.8 274.5 43.5 270 45.9 249.4 57.1"/>
      <polygon class="cls-4" points="286.3 77.1 286.3 81.6 287.8 80.7 290.5 79.3 311 68.2 315.6 65.7 321.3 62.6 321.3 58.1 311.4 63.4 306.9 65.9 287.8 76.2 286.3 77.1"/>
    </g>
    <g>
      <polygon class="cls-4" points="355.9 92.9 361.9 96.1 366.1 98.4 366.1 87.3 360.4 90.4 355.9 92.9"/>
      <polygon class="cls-4" points="366.1 82.8 366.1 98.4 366.4 98.6 370.1 96.5 370.1 80.7 366.1 82.8"/>
      <polygon class="cls-4" points="294.2 81.8 294.2 86.3 322.4 101.5 327 104 327.6 104.3 331.2 106.3 331.2 101.8 327.6 99.8 322.4 97 294.2 81.8"/>
      <polygon class="cls-4" points="294.2 81.8 322.4 97 327.6 99.8 331.2 101.8 332.7 100.9 351.7 90.6 356.3 88.2 366.1 82.8 370.1 80.7 366.1 78.5 333.2 60.7 332.7 61 331.2 61.8 327.6 63.7 322.4 66.5 319.4 68.2 314.8 70.6 294.2 81.8"/>
      <polygon class="cls-4" points="331.2 101.8 331.2 106.3 332.7 105.5 335.3 104 355.9 92.9 360.4 90.4 366.1 87.3 366.1 82.8 356.3 88.2 351.7 90.6 332.7 100.9 331.2 101.8"/>
    </g>
    <g>
      <polygon class="cls-4" points="251.5 154.6 251.5 160 284.5 177.9 289.6 180.7 294.7 177.9 294.7 177.9 289.6 175.2 284.5 172.4 255.9 156.9 251.5 154.5 251.5 154.6"/>
      <polygon class="cls-4" points="294.7 177.9 294.7 196.8 302 192.8 303.3 192.1 307 190.1 312.1 187.4 331.3 177 331.3 158.1 303.3 173.2 294.7 177.9"/>
      <polygon class="cls-4" points="289.6 180.7 289.6 194.1 294.7 196.8 294.7 177.9 289.6 180.7"/>
      <polygon class="cls-4" points="251.5 154.5 255.9 156.9 284.5 172.4 289.6 175.2 294.7 177.9 303.3 173.2 331.3 158.1 331.3 158 303.3 142.8 294.7 138.2 292.6 137.1 289.6 135.4 288.2 134.7 284.5 136.7 251.5 154.5"/>
    </g>
    <g>
      <polygon class="cls-4" points="296.4 130.1 296.4 135.5 329.4 153.4 334.5 156.2 339.6 153.4 339.6 153.4 334.5 150.7 329.4 147.9 300.9 132.5 296.4 130.1 296.4 130.1"/>
      <polygon class="cls-4" points="339.6 153.4 339.6 172.3 346.9 168.4 348.2 167.7 351.9 165.6 357 162.9 376.2 152.5 376.2 133.6 348.2 148.8 339.6 153.4"/>
      <polygon class="cls-4" points="334.5 156.2 334.5 169.6 339.6 172.3 339.6 153.4 334.5 156.2"/>
      <polygon class="cls-4" points="296.4 130.1 300.9 132.5 329.4 147.9 334.5 150.7 339.6 153.4 348.2 148.8 376.2 133.6 376.2 133.5 348.2 118.4 339.6 113.7 337.5 112.6 334.5 110.9 333.1 110.2 329.4 112.2 296.4 130.1"/>
    </g>
    <g>
      <polygon class="cls-4" points="341 105.5 341 110.9 374 128.8 379.1 131.6 384.1 128.8 384.1 128.8 379.1 126.1 374 123.3 345.4 107.9 341 105.5 341 105.5"/>
      <polygon class="cls-4" points="384.1 128.8 384.1 147.7 391.5 143.8 392.8 143.1 396.5 141 401.6 138.3 420.8 127.9 420.8 109 392.8 124.2 384.1 128.8"/>
      <polygon class="cls-4" points="379.1 131.6 379.1 145 384.1 147.7 384.1 128.8 379.1 131.6"/>
      <polygon class="cls-4" points="341 105.5 345.4 107.9 374 123.3 379.1 126.1 384.1 128.8 392.8 124.2 420.8 109 420.8 108.9 392.8 93.8 384.1 89.1 382.1 88 379.1 86.4 377.7 85.6 374 87.6 341 105.5"/>
    </g>
  </g>
  <g>
    <path class="cls-1" d="M65,141.7l49.7,27.3v85.9l61.8-51.9,59,32.4-67.9,53.4,70.2,159.6-59.5-32.7-45.4-103.6-18.2,13.6v55l-49.7-27.4v-211.6h0Z"/>
    <path class="cls-1" d="M248,236.7l47.6-26.2,38.8,60.6,38.8-103.3,47.6-26.2v211.6l-44.8,24.6v-121.5l-41.6,105.7-.9.5-41.3-59.8v121.2l-44.1,24.3v-211.7h0Z"/>
  </g>
  <path class="cls-3" d="M84.6,416.1l5.3-9.8,30.3,16.6c.4.2.7.2,1.1.1s.6-.3.8-.7l.3-.5c.2-.4.2-.7.1-1.1s-.3-.6-.7-.8l-23.2-12.7,5.3-9.8,23.2,12.7c.4.2.7.2,1.1.1.4-.1.6-.3.8-.7l.3-.5c.2-.4.3-.7.2-1.1-.1-.4-.3-.6-.7-.8l-30.3-16.6,5.3-9.8,30.3,16.6c2,1.1,3.6,2.6,4.7,4.5h0c1.1,1.9,1.7,4,1.8,6.1,0,2.2-.4,4.3-1.5,6.4-.9,1.6-1.9,2.9-3.1,4-.7.6-1.5,1.1-2.3,1.6,0,1,0,1.9,0,2.8-.2,1.6-.8,3.2-1.7,4.8-1.1,2-2.6,3.6-4.5,4.7-1.9,1.1-3.9,1.7-6.1,1.8-2.2,0-4.4-.4-6.4-1.5l-30.4-16.6h0s0,0,0,0Z"/>
  <path class="cls-3" d="M129.5,440.6l19.2-35.2,32.4,17.7c2,1.1,3.6,2.6,4.7,4.5,1.1,1.9,1.7,4,1.8,6.1,0,2.2-.4,4.4-1.5,6.4l-7.2,13.2c-1.1,2-2.6,3.5-4.5,4.7h0c-1.9,1.1-3.9,1.7-6.1,1.8-2.2.1-4.3-.4-6.3-1.5l-32.4-17.7h0s0,0,0,0ZM167.2,448.5c.4.2.7.2,1.1.1s.6-.3.8-.7l7.2-13.2c.2-.4.3-.7.2-1.1-.1-.4-.3-.6-.7-.8l-22.6-12.4-8.6,15.7,22.6,12.4h0Z"/>
  <path class="cls-3" d="M270,488l-19.5-35.1,26.9-14.9c1.6-.9,3.5-1.3,5.4-1,1.9.2,3.8.9,5.5,2.1,1.8,1.2,3.2,2.9,4.3,4.8l1.7,3c1.1,2,1.7,4,1.8,6.2h0c0,2.1-.3,4.1-1.1,5.8-.8,1.8-2.1,3.1-3.8,4l-18.8,10.4,5.6,10.1-8.1,4.5h0ZM285.9,453.2c.3-.2.5-.4.6-.8s0-.6-.2-1l-1.7-3c-.2-.4-.4-.6-.8-.8-.3-.1-.6-.1-.9,0l-18.8,10.4,3.1,5.5,18.8-10.4h0Z"/>
  <path class="cls-3" d="M336.5,451.1l-12-6.6-13.4,7.5,5.6,10.1-8.1,4.5-19.5-35.1,26.9-14.9c1.6-.9,3.5-1.3,5.4-1,1.9.2,3.8.9,5.5,2.1,1.8,1.2,3.2,2.9,4.3,4.8l1.7,3c1,1.9,1.6,3.8,1.8,5.8.1,2-.1,3.8-.8,5.4-.2.5-.4,1-.7,1.5l13.3,7.4-10.1,5.6h0ZM324.6,431.7c.3-.2.5-.4.5-.8s0-.6-.2-1l-1.7-3c-.2-.4-.4-.6-.8-.8-.3-.1-.6-.1-.9,0l-18.8,10.4,3.1,5.5,18.8-10.4h0Z"/>
  <polygon class="cls-3" points="348.3 444.6 342.9 434.8 347.1 432.5 338.4 416.8 334.2 419.2 328.8 409.5 345.4 400.3 350.8 410 346.5 412.3 355.2 428 359.5 425.6 364.9 435.4 348.3 444.6"/>
  <polygon class="cls-3" points="400.8 418 365.2 407.7 378 430.7 369.1 435.6 348 397.4 355.5 393.3 391.1 403.6 378.3 380.6 387.1 375.7 408.3 413.8 400.8 418"/>
  <polygon class="cls-3" points="426.1 403.9 410.9 376.4 395.7 384.8 389.8 374.2 429 352.5 434.8 363.1 419.7 371.5 435 399 426.1 403.9"/>
</svg>