<?xml version="1.0" encoding="UTF-8"?>
<svg id="Camada_1" data-name="Camada 1" xmlns="http://www.w3.org/2000/svg" width="425.2" height="199.1" viewBox="0 0 425.2 199.1">
  <defs>
    <style>
      .cls-1 {
        fill: #fff;
      }

      .cls-2 {
        fill: blue;
      }
    </style>
  </defs>
  <g>
    <g>
      <polygon class="cls-2" points="70.8 14.7 68 16.2 66.1 17.2 66.1 12.2 68.7 13.6 70.8 14.7"/>
      <polygon class="cls-2" points="81.1 18.2 81.1 20.3 80.2 19.8 70.8 14.7 68.7 13.6 66.1 12.2 66.1 10.1 70.6 12.5 72.7 13.7 81.1 18.2"/>
      <polygon class="cls-2" points="98 9.1 96.2 10.1 91.7 12.5 89.6 13.7 81.1 18.2 72.7 13.7 70.6 12.5 66.1 10.1 64.3 9.1 66.1 8.1 81.1 0 96.2 8.1 98 9.1"/>
      <polygon class="cls-2" points="66.1 10.1 66.1 17.2 66 17.3 64.3 16.4 64.3 9.1 66.1 10.1"/>
    </g>
    <g>
      <polygon class="cls-2" points="50 25.6 47.3 27.1 45.4 28.1 45.4 23.1 48 24.5 50 25.6"/>
      <polygon class="cls-2" points="45.4 21 45.4 28.1 45.3 28.2 43.6 27.3 43.6 20.1 45.4 21"/>
      <polygon class="cls-2" points="78.2 20.6 78.2 22.6 65.3 29.6 63.2 30.7 63 30.8 61.3 31.7 61.3 29.7 63 28.8 65.3 27.5 78.2 20.6"/>
      <polygon class="cls-2" points="78.2 20.6 65.3 27.5 63 28.8 61.3 29.7 60.6 29.3 51.9 24.6 49.9 23.5 45.4 21 43.6 20.1 45.4 19.1 60.4 10.9 60.6 11 61.3 11.4 63 12.3 65.3 13.6 66.7 14.3 68.8 15.5 78.2 20.6"/>
      <polygon class="cls-2" points="61.3 29.7 61.3 31.7 60.6 31.4 59.4 30.7 50 25.6 48 24.5 45.4 23.1 45.4 21 49.9 23.5 51.9 24.6 60.6 29.3 61.3 29.7"/>
    </g>
    <g>
      <polygon class="cls-2" points="29.6 36.9 26.9 38.4 24.9 39.4 24.9 34.4 27.5 35.8 29.6 36.9"/>
      <polygon class="cls-2" points="24.9 32.3 24.9 39.4 24.8 39.5 23.1 38.6 23.1 31.3 24.9 32.3"/>
      <polygon class="cls-2" points="57.7 31.8 57.7 33.9 44.9 40.8 42.8 42 42.5 42.1 40.9 43 40.9 40.9 42.5 40.1 44.9 38.8 57.7 31.8"/>
      <polygon class="cls-2" points="57.7 31.8 44.9 38.8 42.5 40.1 40.9 40.9 40.2 40.6 31.5 35.9 29.4 34.7 24.9 32.3 23.1 31.3 24.9 30.3 39.9 22.2 40.2 22.3 40.9 22.7 42.5 23.6 44.9 24.9 46.3 25.6 48.3 26.7 57.7 31.8"/>
      <polygon class="cls-2" points="40.9 40.9 40.9 43 40.2 42.6 39 42 29.6 36.9 27.5 35.8 24.9 34.4 24.9 32.3 29.4 34.7 31.5 35.9 40.2 40.6 40.9 40.9"/>
    </g>
    <g>
      <polygon class="cls-2" points="77.2 65 77.2 67.5 62.2 75.7 59.8 76.9 57.5 75.7 57.5 75.7 59.8 74.4 62.2 73.2 75.2 66.1 77.2 65 77.2 65"/>
      <polygon class="cls-2" points="57.5 75.7 57.5 84.3 54.2 82.5 53.6 82.2 51.9 81.2 49.6 80 40.8 75.3 40.8 66.6 53.6 73.5 57.5 75.7"/>
      <polygon class="cls-2" points="59.8 76.9 59.8 83 57.5 84.3 57.5 75.7 59.8 76.9"/>
      <polygon class="cls-2" points="77.2 65 75.2 66.1 62.2 73.2 59.8 74.4 57.5 75.7 53.6 73.5 40.8 66.6 40.8 66.6 53.6 59.7 57.5 57.5 58.5 57 59.8 56.3 60.5 55.9 62.2 56.9 77.2 65"/>
    </g>
    <g>
      <polygon class="cls-2" points="56.7 53.9 56.7 56.4 41.7 64.5 39.4 65.8 37 64.5 37 64.5 39.4 63.3 41.7 62 54.7 54.9 56.7 53.9 56.7 53.9"/>
      <polygon class="cls-2" points="37 64.5 37 73.1 33.7 71.3 33.1 71 31.4 70.1 29.1 68.8 20.3 64.1 20.3 55.5 33.1 62.4 37 64.5"/>
      <polygon class="cls-2" points="39.4 65.8 39.4 71.9 37 73.1 37 64.5 39.4 65.8"/>
      <polygon class="cls-2" points="56.7 53.9 54.7 54.9 41.7 62 39.4 63.3 37 64.5 33.1 62.4 20.3 55.5 20.3 55.4 33.1 48.5 37 46.4 38 45.9 39.4 45.1 40 44.8 41.7 45.7 56.7 53.9"/>
    </g>
    <g>
      <polygon class="cls-2" points="36.4 42.6 36.4 45.1 21.3 53.3 19 54.5 16.7 53.3 16.7 53.3 19 52 21.3 50.8 34.4 43.7 36.4 42.6 36.4 42.6"/>
      <polygon class="cls-2" points="16.7 53.3 16.7 61.9 13.4 60.1 12.8 59.8 11.1 58.9 8.8 57.6 0 52.9 0 44.2 12.8 51.2 16.7 53.3"/>
      <polygon class="cls-2" points="19 54.5 19 60.7 16.7 61.9 16.7 53.3 19 54.5"/>
      <polygon class="cls-2" points="36.4 42.6 34.4 43.7 21.3 50.8 19 52 16.7 53.3 12.8 51.2 0 44.2 0 44.2 12.8 37.3 16.7 35.2 17.6 34.7 19 33.9 19.7 33.6 21.3 34.5 36.4 42.6"/>
    </g>
    <g>
      <polygon class="cls-2" points="101.2 77.8 101.2 77.8 97.8 79.6 85.8 86.1 81.1 88.7 76.4 86.1 64.4 79.6 61 77.8 61 77.8 76.4 69.4 79.1 68 81.1 66.9 83.2 68 85.8 69.4 101.2 77.8"/>
      <polygon class="cls-2" points="81.1 88.7 81.1 97.5 76.4 94.9 61 86.6 61 77.8 64.4 79.6 76.4 86.1 81.1 88.7"/>
      <polygon class="cls-2" points="101.2 77.8 101.2 86.6 85.8 94.9 81.1 97.5 81.1 88.7 85.8 86.1 97.8 79.6 101.2 77.8"/>
    </g>
    <g>
      <polygon class="cls-2" points="91.5 14.7 94.2 16.2 96.2 17.2 96.2 12.2 93.6 13.6 91.5 14.7"/>
      <polygon class="cls-2" points="96.2 10.1 96.2 12.2 93.6 13.6 91.5 14.7 82.1 19.8 81.1 20.3 81.1 18.2 89.6 13.7 91.7 12.5 96.2 10.1"/>
      <polygon class="cls-2" points="98 9.1 98 16.4 96.3 17.3 96.2 17.2 96.2 10.1 98 9.1"/>
    </g>
    <g>
      <polygon class="cls-2" points="112.2 25.6 115 27.1 116.9 28.1 116.9 23.1 114.3 24.5 112.2 25.6"/>
      <polygon class="cls-2" points="116.9 21 116.9 28.1 117 28.2 118.7 27.3 118.7 20.1 116.9 21"/>
      <polygon class="cls-2" points="84.1 20.6 84.1 22.6 97 29.6 99 30.7 99.3 30.8 100.9 31.7 100.9 29.7 99.3 28.8 97 27.5 84.1 20.6"/>
      <polygon class="cls-2" points="84.1 20.6 97 27.5 99.3 28.8 100.9 29.7 101.6 29.3 110.3 24.6 112.4 23.5 116.9 21 118.7 20.1 116.9 19.1 101.9 10.9 101.6 11 100.9 11.4 99.3 12.3 97 13.6 95.6 14.3 93.5 15.5 84.1 20.6"/>
      <polygon class="cls-2" points="100.9 29.7 100.9 31.7 101.6 31.4 102.8 30.7 112.2 25.6 114.3 24.5 116.9 23.1 116.9 21 112.4 23.5 110.3 24.6 101.6 29.3 100.9 29.7"/>
    </g>
    <g>
      <polygon class="cls-2" points="132.7 36.9 135.4 38.4 137.3 39.4 137.3 34.4 134.7 35.8 132.7 36.9"/>
      <polygon class="cls-2" points="137.3 32.3 137.3 39.4 137.5 39.5 139.2 38.6 139.2 31.3 137.3 32.3"/>
      <polygon class="cls-2" points="104.5 31.8 104.5 33.9 117.4 40.8 119.5 42 119.7 42.1 121.4 43 121.4 40.9 119.7 40.1 117.4 38.8 104.5 31.8"/>
      <polygon class="cls-2" points="104.5 31.8 117.4 38.8 119.7 40.1 121.4 40.9 122.1 40.6 130.8 35.9 132.9 34.7 137.3 32.3 139.2 31.3 137.3 30.3 122.3 22.2 122.1 22.3 121.4 22.7 119.7 23.6 117.4 24.9 116 25.6 113.9 26.7 104.5 31.8"/>
      <polygon class="cls-2" points="121.4 40.9 121.4 43 122.1 42.6 123.3 42 132.7 36.9 134.7 35.8 137.3 34.4 137.3 32.3 132.9 34.7 130.8 35.9 122.1 40.6 121.4 40.9"/>
    </g>
    <g>
      <polygon class="cls-2" points="85 65 85 67.5 100.1 75.7 102.4 76.9 104.7 75.7 104.7 75.7 102.4 74.4 100.1 73.2 87.1 66.1 85.1 65 85 65"/>
      <polygon class="cls-2" points="104.7 75.7 104.7 84.3 108.1 82.5 108.7 82.2 110.4 81.2 112.7 80 121.5 75.3 121.5 66.6 108.7 73.5 104.7 75.7"/>
      <polygon class="cls-2" points="102.4 76.9 102.4 83 104.7 84.3 104.7 75.7 102.4 76.9"/>
      <polygon class="cls-2" points="85.1 65 87.1 66.1 100.1 73.2 102.4 74.4 104.7 75.7 108.7 73.5 121.5 66.6 121.5 66.6 108.7 59.7 104.7 57.5 103.8 57 102.4 56.3 101.8 55.9 100.1 56.9 85.1 65"/>
    </g>
    <g>
      <polygon class="cls-2" points="105.5 53.9 105.5 56.4 120.6 64.5 122.9 65.8 125.2 64.5 125.2 64.5 122.9 63.3 120.6 62 107.6 54.9 105.5 53.9 105.5 53.9"/>
      <polygon class="cls-2" points="125.2 64.5 125.2 73.1 128.6 71.3 129.2 71 130.9 70.1 133.2 68.8 141.9 64.1 141.9 55.5 129.2 62.4 125.2 64.5"/>
      <polygon class="cls-2" points="122.9 65.8 122.9 71.9 125.2 73.1 125.2 64.5 122.9 65.8"/>
      <polygon class="cls-2" points="105.5 53.9 107.6 54.9 120.6 62 122.9 63.3 125.2 64.5 129.2 62.4 141.9 55.5 141.9 55.4 129.2 48.5 125.2 46.4 124.3 45.9 122.9 45.1 122.3 44.8 120.6 45.7 105.5 53.9"/>
    </g>
    <g>
      <polygon class="cls-2" points="125.9 42.6 125.9 45.1 140.9 53.3 143.2 54.5 145.6 53.3 145.6 53.3 143.2 52 140.9 50.8 127.9 43.7 125.9 42.6 125.9 42.6"/>
      <polygon class="cls-2" points="145.6 53.3 145.6 61.9 148.9 60.1 149.5 59.8 151.2 58.9 153.5 57.6 162.3 52.9 162.3 44.2 149.5 51.2 145.6 53.3"/>
      <polygon class="cls-2" points="143.2 54.5 143.2 60.7 145.6 61.9 145.6 53.3 143.2 54.5"/>
      <polygon class="cls-2" points="125.9 42.6 127.9 43.7 140.9 50.8 143.2 52 145.6 53.3 149.5 51.2 162.3 44.2 162.3 44.2 149.5 37.3 145.6 35.2 144.6 34.7 143.2 33.9 142.6 33.6 140.9 34.5 125.9 42.6"/>
    </g>
  </g>
  <g>
    <path class="cls-1" d="M0,59.2l22.7,12.5v39.2l28.2-23.7,26.9,14.8-31,24.3,32,72.8-27.1-14.9-20.7-47.2-8.3,6.2v25.1L0,155.7V59.1h0Z"/>
    <path class="cls-1" d="M83.4,102.5l21.7-11.9,17.7,27.6,17.7-47.1,21.7-11.9v96.5l-20.4,11.2v-55.4l-19,48.2-.4.2-18.9-27.3v55.3l-20.1,11.1v-96.6h0Z"/>
  </g>
  <g>
    <path class="cls-2" d="M183.1,100.4v-11.4h35.5c.4,0,.8-.1,1-.4s.4-.6.4-1v-.6c0-.4-.1-.8-.4-1s-.6-.4-1-.4h-27.2v-11.4h27.2c.4,0,.7-.1,1-.4.3-.3.4-.6.4-1.1v-.6c0-.5-.1-.8-.4-1.1-.3-.3-.6-.4-1-.4h-35.5v-11.4h35.5c2.3,0,4.5.6,6.5,1.7h0c1.9,1.2,3.4,2.7,4.6,4.7,1.2,1.9,1.8,4.1,1.8,6.5s-.3,3.6-.8,5.2c-.3.9-.8,1.8-1.3,2.6.6.8,1,1.7,1.3,2.6.6,1.5.8,3.3.8,5.2s-.6,4.5-1.8,6.5c-1.2,1.9-2.7,3.4-4.6,4.6-2,1.2-4.1,1.8-6.5,1.8h-35.5,0Z"/>
    <path class="cls-2" d="M235.6,100.4v-41.2h37.9c2.3,0,4.5.6,6.5,1.8,1.9,1.2,3.5,2.7,4.6,4.6,1.2,2,1.8,4.2,1.8,6.5v15.5c0,2.3-.6,4.5-1.7,6.5h0c-1.2,2-2.7,3.5-4.6,4.6-1.9,1.2-4.1,1.8-6.5,1.8h-37.9ZM273.5,89c.5,0,.8-.1,1-.4s.4-.6.4-1v-15.5c0-.5-.1-.8-.4-1.1-.3-.3-.6-.4-1-.4h-26.5v18.4h26.5,0Z"/>
  </g>
  <g>
    <path class="cls-1" d="M183.1,155.6v-41.2h37.9c2.3,0,4.5.6,6.4,1.8,1.9,1.2,3.5,2.7,4.6,4.6,1.2,2,1.8,4.2,1.8,6.5v3.6c0,2.3-.6,4.5-1.7,6.5h0c-1.2,1.9-2.7,3.5-4.6,4.6-1.9,1.2-4.1,1.8-6.5,1.8h-26.5v11.9h-11.4,0ZM221,132.3c.4,0,.8-.1,1-.4s.4-.6.4-1v-3.6c0-.5-.1-.8-.4-1.1-.3-.3-.6-.4-1-.4h-26.5v6.5h26.5,0Z"/>
    <path class="cls-1" d="M276.7,155.6l-8.9-11.9h-18.9v11.9h-11.4v-41.2h37.9c2.3,0,4.5.6,6.5,1.8,1.9,1.2,3.5,2.7,4.6,4.6,1.2,2,1.8,4.2,1.8,6.5v3.6c0,2.2-.5,4.2-1.5,6.1-1,1.8-2.4,3.3-4,4.5-.5.4-1,.7-1.6,1l9.9,13.2h-14.3,0ZM275.4,132.3c.5,0,.8-.1,1-.4s.4-.6.4-1v-3.6c0-.5-.1-.8-.4-1.1-.3-.3-.6-.4-1-.4h-26.5v6.5h26.5,0Z"/>
    <polygon class="cls-1" points="293.3 155.6 293.3 144.2 299.2 144.2 299.2 125.8 293.3 125.8 293.3 114.4 316.6 114.4 316.6 125.8 310.7 125.8 310.7 144.2 316.6 144.2 316.6 155.6 293.3 155.6"/>
    <polygon class="cls-1" points="361.2 155.6 331.6 130.7 331.6 155.6 320.1 155.6 320.1 114.4 329.8 114.4 359.5 139.3 359.5 114.4 370.9 114.4 370.9 155.6 361.2 155.6"/>
    <polygon class="cls-1" points="394.1 155.6 394.1 125.8 374.4 125.8 374.4 114.4 425.2 114.4 425.2 125.8 405.5 125.8 405.5 155.6 394.1 155.6"/>
  </g>
</svg>